Coordinates
version=1
nRows=14
nColumns=40
inDegrees=yes

Units are S.I. units (second, meters, Newtons, ...)
Angles are in degrees.

endheader
time	pelvis_tilt	pelvis_list	pelvis_rotation	pelvis_tx	pelvis_ty	pelvis_tz	hip_flexion_r	hip_adduction_r	hip_rotation_r	knee_angle_r	knee_angle_r_beta	ankle_angle_r	subtalar_angle_r	mtp_angle_r	hip_flexion_l	hip_adduction_l	hip_rotation_l	knee_angle_l	knee_angle_l_beta	ankle_angle_l	subtalar_angle_l	mtp_angle_l	lumbar_extension	lumbar_bending	lumbar_rotation	arm_flex_r	arm_add_r	arm_rot_r	elbow_flex_r	pro_sup_r	wrist_flex_r	wrist_dev_r	arm_flex_l	arm_add_l	arm_rot_l	elbow_flex_l	pro_sup_l	wrist_flex_l	wrist_dev_l
     55.88000000	     -3.56314183	     -4.62479954	     -0.71299749	      0.97588489	      0.91265633	      0.39518649	     26.51849935	     -5.68152380	     -3.12859242	     65.58485735	     65.58485735	      7.24349986	    -18.30788710	      5.22017270	     19.09789178	     -1.59604298	     -1.15231126	     34.29014143	     34.29014143	     20.88145184	    -16.47068819	      6.89355773	    -11.08272885	      6.28810661	      2.62454528	      6.50013531	    -13.71008816	     -4.66824776	     25.94251244	     46.75360989	      0.00000000	      0.00000000	     25.54581925	    -13.69389571	      7.62295716	     40.70300895	     45.65610816	      0.00000000	      0.00000000
     55.89885714	     -3.48888602	     -4.69579178	     -1.21451392	      0.97442898	      0.91289634	      0.39482600	     27.66734173	     -5.61431074	     -3.10522136	     64.57813638	     64.57813638	      7.75674556	    -18.33370192	      5.31573266	     18.54677385	     -1.71337519	     -1.51186839	     34.10804491	     34.10804491	     21.15781438	    -16.53811227	      6.86904630	    -11.12836316	      6.58591605	      1.70982172	      4.24295938	    -13.57733757	     -4.76789695	     25.04934830	     46.77804935	      0.00000000	      0.00000000	     26.90265353	    -14.74481904	      7.25728646	     41.29818781	     45.71500177	      0.00000000	      0.00000000
     55.91771429	     -3.43753970	     -4.76218315	     -1.86259450	      0.97291494	      0.91370092	      0.39500114	     28.77947658	     -5.31155450	     -2.89893149	     63.11870746	     63.11870746	      8.78982614	    -18.26942377	      7.66633081	     17.83041137	     -1.88542911	     -2.03098514	     33.60354235	     33.60354235	     21.42533862	    -16.51071636	      7.06481648	    -11.30596927	      6.82526421	      1.88637659	      2.42280217	    -12.89135905	    -11.32380840	     21.88584336	     47.44289987	      0.00000000	      0.00000000	     27.64854154	    -14.72164324	      4.31773198	     45.07213058	     46.17598802	      0.00000000	      0.00000000
     55.93657143	     -3.53225275	     -4.82740874	     -2.49402596	      0.97127349	      0.91479049	      0.39542949	     29.75814140	     -5.05215342	     -2.93898388	     60.92224579	     60.92224579	      9.12129710	    -18.09760202	      7.64189105	     17.17359359	     -2.06934048	     -2.56100254	     32.87725876	     32.87725876	     21.50845738	    -16.41913572	      7.15615548	    -11.23533535	      7.06772441	      1.45150037	      0.12280323	    -12.92562106	    -11.45287010	     21.12702922	     47.46302028	      0.00000000	      0.00000000	     28.97462139	    -15.56896304	      3.98075091	     45.97104362	     46.23163853	      0.00000000	      0.00000000
     55.95542857	     -3.47071624	     -4.85913391	     -3.27524198	      0.96976283	      0.91660286	      0.39631600	     30.29748720	     -4.67718020	     -2.88703494	     58.07336243	     58.07336243	      9.19644587	    -17.82180639	      7.11846867	     16.14550553	     -2.26411486	     -3.32898092	     31.83437719	     31.83437719	     21.46432687	    -16.27233893	      7.17907503	    -11.42747976	      7.21530409	      1.92885361	     -2.53104919	    -13.08116665	    -11.81948086	     20.63608717	     47.48855175	      0.00000000	      0.00000000	     30.36207320	    -15.84867265	      3.44748693	     48.21972000	     46.32293862	      0.00000000	      0.00000000
     55.97428571	     -3.67012625	     -4.87614000	     -4.01518077	      0.96807841	      0.91830642	      0.39744708	     30.81812417	     -4.33672827	     -3.07958159	     54.59331108	     54.59331108	      8.23309134	    -17.52728809	      3.62624262	     15.33449764	     -2.45620554	     -4.09666267	     30.59986651	     30.59986651	     21.01253706	    -16.12188233	      6.42497808	    -11.40076580	      7.38659025	      1.54229663	     -5.19033390	    -12.99207273	    -13.55037299	     22.25598507	     47.52101895	      0.00000000	      0.00000000	     30.58792033	    -16.89274867	      2.06311389	     51.86560628	     46.51457548	      0.00000000	      0.00000000
     55.99314286	     -3.86874544	     -4.86524008	     -4.79422237	      0.96638664	      0.92027618	      0.39893516	     31.16796830	     -3.87843740	     -3.16996780	     50.85887568	     50.85887568	      8.03492666	    -16.55460012	      2.68603748	     14.43065381	     -2.62446830	     -4.92117836	     29.22129525	     29.22129525	     20.78027768	    -15.78308500	      6.37586210	    -11.31403334	      7.46984676	      1.66674920	     -7.34445846	    -12.99866272	    -14.06055949	     22.02463838	     47.54227124	      0.00000000	      0.00000000	     31.80141191	    -17.45151448	      1.44001251	     53.49157169	     46.60771225	      0.00000000	      0.00000000
     56.01200000	     -4.06841421	     -4.88940089	     -5.55913036	      0.96482854	      0.92225905	      0.40068600	     31.16640384	     -3.37051881	     -3.41432240	     46.60518058	     46.60518058	      7.13645493	    -15.35095799	     -0.34928380	     13.43654199	     -2.82686080	     -5.77698064	     27.68694418	     27.68694418	     20.25037253	    -15.49392706	      5.62304855	    -11.26145714	      7.62179750	      1.42161081	     -9.55665163	    -12.93832324	    -15.45621803	     23.47383760	     47.53535921	      0.00000000	      0.00000000	     32.33264451	    -18.40906759	      0.24702764	     56.12725502	     46.76908050	      0.00000000	      0.00000000
     56.03085714	     -4.27252144	     -4.84184954	     -6.29892438	      0.96328650	      0.92411430	      0.40268665	     31.01126017	     -2.89626659	     -3.67412511	     42.27052715	     42.27052715	      6.67701871	    -13.34842399	     -2.01410280	     12.43796672	     -2.93403331	     -6.62642350	     26.12038234	     26.12038234	     19.77408875	    -15.12944481	      5.12169226	    -11.16293102	      7.66805386	      1.36493116	    -11.44664125	    -12.83027615	    -16.43319861	     24.25671145	     47.51036366	      0.00000000	      0.00000000	     33.23908015	    -19.18049960	     -0.51717801	     57.89787383	     46.88765537	      0.00000000	      0.00000000
     56.04971429	     -4.48058516	     -4.71581150	     -6.98688142	      0.96185712	      0.92567739	      0.40482615	     30.73099466	     -2.51718060	     -4.01203069	     38.00709303	     38.00709303	      6.75467255	    -10.45711972	     -2.12068777	     11.47435127	     -2.95097697	     -7.50387153	     24.62309173	     24.62309173	     19.55377619	    -14.55314074	      5.09296428	    -11.01131199	      7.61559518	      1.37855353	    -12.99529952	    -12.74471166	    -16.73936831	     24.40492690	     47.49523073	      0.00000000	      0.00000000	     34.32141478	    -19.87948815	     -0.98955368	     59.20060623	     46.95828640	      0.00000000	      0.00000000
     56.06857143	     -4.74736747	     -4.67602822	     -7.62530421	      0.96053814	      0.92680210	      0.40727233	     30.31290020	     -1.94079974	     -4.23409850	     33.72181481	     33.72181481	      6.64507303	     -7.69115675	     -1.78144200	     10.65116256	     -3.06151944	     -8.25001374	     23.30179415	     23.30179415	     19.40630334	    -14.05922928	      5.09957797	    -10.75329509	      7.66441002	      1.29782806	    -14.25031969	    -12.63869158	    -16.93016136	     24.53332324	     47.48372627	      0.00000000	      0.00000000	     35.33095249	    -20.63582174	     -1.39849177	     60.21389184	     47.01457979	      0.00000000	      0.00000000
     56.08742857	     -4.82645421	     -4.41897991	     -8.20442022	      0.95953181	      0.92747272	      0.40964018	     29.71304946	     -1.80751650	     -4.86944589	     29.87357394	     29.87357394	      6.81879319	     -3.83535638	     -1.46765722	      9.60882895	     -2.89713419	     -9.12056122	     21.88609160	     21.88609160	     18.78144186	    -13.61370387	      3.65521240	    -10.79220750	      7.48248329	      1.17519960	    -16.13172346	    -12.38139909	    -17.89635056	     27.17196535	     47.36385756	      0.00000000	      0.00000000	     35.70197684	    -21.44936889	     -2.55087899	     63.11031529	     47.17242414	      0.00000000	      0.00000000
     56.10628571	     -5.06782804	     -4.23500538	     -8.67539897	      0.95859044	      0.92759027	      0.41223520	     29.12424489	     -1.40494837	     -5.06035032	     26.13352432	     26.13352432	      6.63372438	     -1.22762211	     -0.79237183	      8.95035435	     -2.83048975	     -9.72919017	     20.90044145	     20.90044145	     18.76840537	    -13.18670310	      3.56523018	    -10.48342069	      7.39704690	      1.13835140	    -16.93949480	    -12.16177388	    -17.95598512	     27.17855266	     47.35147352	      0.00000000	      0.00000000	     36.72244669	    -21.97608699	     -2.83989574	     63.84562360	     47.21579554	      0.00000000	      0.00000000
     56.12514286	     -5.04432726	     -3.94241143	     -9.10994926	      0.95807630	      0.92741405	      0.41481701	     28.43540791	     -1.40727432	     -5.92800541	     23.26215236	     23.26215236	      7.02670093	      2.58794501	      0.80278192	      7.99313920	     -2.61562379	    -10.48743180	     19.88390791	     19.88390791	     18.35795019	    -12.72535291	      2.06049745	    -10.51724050	      7.16479395	      1.10036175	    -18.18713894	    -11.93646463	    -18.38775501	     28.85007926	     47.23776763	      0.00000000	      0.00000000	     37.33934343	    -22.54607623	     -3.78292891	     65.88899109	     47.34535323	      0.00000000	      0.00000000
